<svg
   style="height: 512px; width: 512px;"
   viewBox="0 0 512 512"
   version="1.1"
   id="svg8"
   sodipodi:docname="overmind-icon.svg"
   inkscape:version="1.2.1 (9c6d41e410, 2022-07-14)"
   xmlns:inkscape="http://www.inkscape.org/namespaces/inkscape"
   xmlns:sodipodi="http://sodipodi.sourceforge.net/DTD/sodipodi-0.dtd"
   xmlns="http://www.w3.org/2000/svg"
   xmlns:svg="http://www.w3.org/2000/svg">
  <path
     id="polygon2"
     d="M 128 34.300781 L 0 256 L 128 477.69922 L 384 477.69922 L 512 256 L 384 34.300781 L 128 34.300781 z M 256 69.34375 C 299.10806 112.45321 309.87891 144.78351 309.87891 166.33789 C 309.87891 187.89227 277.55438 198.66992 256 198.66992 C 234.44702 198.66992 202.12109 187.89227 202.12109 166.33789 C 202.12109 144.78351 212.89124 112.45181 256 69.34375 z M 169.70312 194.6875 C 180.44531 194.8135 186.26972 198.18964 192.10352 201.55664 C 201.43661 206.94524 205.38859 221.66691 200 231 C 194.61001 240.33449 179.88903 244.28578 170.55664 238.89648 C 161.22285 233.50789 151.88899 228.11329 144 198.66992 C 155.04109 195.71032 163.25613 194.6119 169.70312 194.6875 z M 342.29688 194.6875 C 348.74387 194.6119 356.95821 195.71102 368 198.66992 C 360.11101 228.11329 350.77645 233.50859 341.44336 238.89648 C 332.11027 244.28648 317.38859 240.33309 312 231 C 306.61141 221.66761 310.56409 206.94454 319.89648 201.55664 C 325.73028 198.18754 331.55469 194.8135 342.29688 194.6875 z M 256 220.21484 C 279.80698 220.21484 299.11523 239.52366 299.11523 263.33203 C 299.11523 287.14041 279.80698 306.44727 256 306.44727 C 232.19232 306.44727 212.88477 287.13901 212.88477 263.33203 C 212.88477 239.52296 232.19302 220.2168 256 220.2168 L 256 220.21484 z M 155.17969 262.36914 C 172.05457 262.03524 191.07501 280.20332 200 295.66211 C 210.77719 314.32899 217.6161 347.71109 198.94922 358.48828 C 180.28234 369.26477 146.88744 376.1022 88 360.32422 C 103.77938 301.43678 126.3839 275.94781 145.05078 265.16992 C 148.25888 263.31702 151.67619 262.43774 155.17969 262.36914 z M 355.85938 262.36914 C 359.69817 262.28864 363.44922 263.14777 366.94922 265.16797 C 385.6161 275.94656 408.22202 301.43608 424 360.32422 C 365.11256 376.1029 331.71766 369.26547 313.05078 358.48828 C 294.3839 347.71109 301.22281 314.32899 312 295.66211 C 320.75629 280.49522 339.22739 262.71914 355.85938 262.36914 z M 256 327.99414 C 266.77719 327.99414 277.54688 338.76383 277.54688 349.54102 C 277.54688 360.3175 277.55438 371.10187 256 392.65625 C 234.44602 371.10257 234.45312 360.3189 234.45312 349.54102 C 234.45312 338.76453 245.22281 327.99414 256 327.99414 z " />
</svg>
