<?xml version="1.0" encoding="UTF-8" standalone="no"?>
<!DOCTYPE svg PUBLIC "-//W3C//DTD SVG 1.1//EN" "http://www.w3.org/Graphics/SVG/1.1/DTD/svg11.dtd">
<svg width="100%" height="100%" viewBox="0 0 48 48" version="1.1" xmlns="http://www.w3.org/2000/svg" xmlns:xlink="http://www.w3.org/1999/xlink" xml:space="preserve" xmlns:serif="http://www.serif.com/" style="fill-rule:evenodd;clip-rule:evenodd;stroke-linejoin:round;stroke-miterlimit:2;">
    <path d="M6,42L6,30.5L9,30.5L9,36.85L16.4,29.45L18.55,31.6L11.15,39L17.5,39L17.5,42L6,42ZM30.5,42L30.5,39L36.85,39L29.5,31.65L31.65,29.5L39,36.85L39,30.5L42,30.5L42,42L30.5,42ZM16.35,18.5L9,11.15L9,17.5L6,17.5L6,6L17.5,6L17.5,9L11.15,9L18.5,16.35L16.35,18.5ZM31.65,18.5L29.5,16.35L36.85,9L30.5,9L30.5,6L42,6L42,17.5L39,17.5L39,11.15L31.65,18.5Z" style="fill-rule:nonzero;stroke:black;stroke-width:1px;"/>
</svg>
