<svg xmlns="http://www.w3.org/2000/svg" viewBox="0 0 512 512" style="height: 512px; width: 512px;"><defs><clipPath id="icon-bg"><circle cx="256" cy="256" r="256" fill="url(#pattern)" fill-opacity="0.01" transform="translate(-25.6, -25.6) scale(1.1, 1.1) rotate(0, 256, 256) skewX(0) skewY(0)"></circle></clipPath><pattern><pattern id="pattern" patternUnits="userSpaceOnUse" width="16" height="16"><path d="M 0,16 l 16,-16 M -4,4 l 8,-8 M 12,20 l 8,-8" stroke-width="2" shape-rendering="auto" stroke="#000000" stroke-linecap="square"></path></pattern></pattern></defs><circle cx="256" cy="256" r="256" fill="url(#pattern)" fill-opacity="0.01"></circle><g class="" transform="translate(0,0)" style=""><path d="M117.938 50.5l2.53 99.906 105.313 58.97L117.938 50.5zm260.906 22.594l-97.438 35.97L302.344 280l76.5-206.906zm115.22 78.75L360.154 211.78l67.563 119.75 5.655 10.064-11 3.47-82.063 25.78 57.438 49.25 23.75 20.375-31.03-4-254.22-32.814-35.406-4.562 33.094-13.375 127.187-51.345L173.5 295.03 19.75 363.907v130.656h474.313V151.844zm-357.783 50.47l-96.53 22.655 246.844 72.343-150.313-95z" fill="#fff" fill-opacity="1" clip-path="url(#icon-bg)" transform="translate(25.6, 25.6) scale(0.9, 0.9) rotate(0, 256, 256) skewX(0) skewY(0)"></path></g></svg>